<svg width="256" height="255" fill="none" xmlns="http://www.w3.org/2000/svg"><path fill-rule="evenodd" clip-rule="evenodd" d="M27.678 0C12.39 0 0 12.39 0 27.674v159.969c0 15.285 12.392 27.674 27.678 27.674h61.436l39.161 39.161 39.162-39.161h60.885c15.287 0 27.678-12.39 27.678-27.674V27.673C256 12.39 243.608 0 228.322 0H27.678z" fill="url(#paint0_linear)"/><mask id="a" maskUnits="userSpaceOnUse" x="0" y="0" width="256" height="255"><path fill-rule="evenodd" clip-rule="evenodd" d="M27.678 0C12.39 0 0 12.39 0 27.674v159.969c0 15.285 12.392 27.674 27.678 27.674h61.436l39.161 39.161 39.162-39.161h60.885c15.287 0 27.678-12.39 27.678-27.674V27.673C256 12.39 243.608 0 228.322 0H27.678z" fill="#fff"/></mask><path fill-rule="evenodd" clip-rule="evenodd" d="M142.625 124.071h37.492V95.929h-37.492V58.81h-29.077v37.118H76.056v28.142h37.492v37.398h29.077v-37.398z" fill="#000" style="mix-blend-mode:soft-light"/><path fill-rule="evenodd" clip-rule="evenodd" d="M142.625 124.071h37.492V95.929h-37.492V58.81h-29.077v37.118H76.056v28.142h37.492v37.398h29.077v-37.398z" fill="#000" fill-opacity=".696"/><defs><linearGradient id="paint0_linear" x1="195.4" y1="133.998" x2="195.4" y2="0" gradientUnits="userSpaceOnUse"><stop stop-color="#00A0FB"/><stop offset="1" stop-color="#00CBFC"/></linearGradient></defs></svg>